<?xml version="1.0" encoding="UTF-8" standalone="no"?>
<svg
   xmlns:dc="http://purl.org/dc/elements/1.1/"
   xmlns:cc="http://creativecommons.org/ns#"
   xmlns:rdf="http://www.w3.org/1999/02/22-rdf-syntax-ns#"
   xmlns:svg="http://www.w3.org/2000/svg"
   xmlns="http://www.w3.org/2000/svg"
   xmlns:sodipodi="http://sodipodi.sourceforge.net/DTD/sodipodi-0.dtd"
   xmlns:inkscape="http://www.inkscape.org/namespaces/inkscape"
   viewBox="0 0 399.99998 195.73399"
   version="1.1"
   id="svg220"
   sodipodi:docname="LOGO WEB 2.svg"
   width="400"
   height="195.73399"
   inkscape:version="0.92.4 (5da689c313, 2019-01-14)">
  <metadata
     id="metadata224">
    <rdf:RDF>
      <cc:Work
         rdf:about="">
        <dc:format>image/svg+xml</dc:format>
        <dc:type
           rdf:resource="http://purl.org/dc/dcmitype/StillImage" />
        <dc:title>LOGO WEB 2</dc:title>
      </cc:Work>
    </rdf:RDF>
  </metadata>
  <sodipodi:namedview
     pagecolor="#ffffff"
     bordercolor="#666666"
     borderopacity="1"
     objecttolerance="10"
     gridtolerance="10"
     guidetolerance="10"
     inkscape:pageopacity="0"
     inkscape:pageshadow="2"
     inkscape:window-width="1920"
     inkscape:window-height="1017"
     id="namedview222"
     showgrid="false"
     inkscape:zoom="1"
     inkscape:cx="288.235"
     inkscape:cy="133.78"
     inkscape:window-x="-8"
     inkscape:window-y="-8"
     inkscape:window-maximized="1"
     inkscape:current-layer="svg220" />
  <defs
     id="defs4">
    <style
       id="style2">.cls-1{fill:#c08201;}.cls-1,.cls-10,.cls-14,.cls-15,.cls-18,.cls-19,.cls-2,.cls-20,.cls-9{stroke:#1e120d;stroke-miterlimit:10;}.cls-1,.cls-10,.cls-14,.cls-15,.cls-18,.cls-19,.cls-2,.cls-9{stroke-width:0.5px;}.cls-10,.cls-15,.cls-2{fill:#2b1700;}.cls-2{opacity:0.97;}.cls-3{opacity:0.49;}.cls-4{fill:#01300a;}.cls-5{fill:#1e120d;}.cls-6{opacity:0.18;}.cls-7{opacity:0.6;}.cls-8{opacity:0.63;}.cls-9{fill:#764c00;}.cls-19,.cls-9{opacity:0.78;}.cls-10{opacity:0.72;}.cls-11{opacity:0.32;}.cls-12{opacity:0.74;}.cls-13{opacity:0.5;}.cls-14{opacity:0.89;}.cls-15{opacity:0.99;}.cls-16{opacity:0.33;}.cls-17{opacity:0.44;}.cls-20{fill:none;stroke-width:0.56px;}</style>
  </defs>
  <title
     id="title6">LOGO WEB 2</title>
  <g
     id="Vrstva_2"
     data-name="Vrstva 2"
     transform="matrix(0.33541367,0,0,0.33541367,0,2.4414063e-6)">
    <g
       id="Vrstva_1-2"
       data-name="Vrstva 1">
      <path
         d="m 324,411.92 h 5.22 v 103 h 50.53 v 4.56 H 324 Z"
         id="path8"
         inkscape:connector-curvature="0" />
      <path
         d="m 444.32,411.92 h 5.21 V 519.5 h -5.21 z"
         id="path10"
         inkscape:connector-curvature="0" />
      <path
         d="m 527.45,411.92 h 28 c 21.52,0 34.88,8.48 34.88,26.08 0,11.41 -5.87,20.21 -17,23.47 v 0.66 c 14.34,2.28 23.8,11.08 23.8,26.07 0,20.54 -15.32,31.3 -39.77,31.3 h -30 z m 24.77,47.92 c 23.47,0 32.93,-8.15 32.93,-21.51 0,-16 -11.09,-21.84 -31.95,-21.84 h -20.54 v 43.35 z m 3.26,55.1 c 22.49,0 36.51,-8.15 36.51,-26.41 0,-16.3 -13.36,-24.12 -36.51,-24.12 h -22.82 v 50.53 z"
         id="path12"
         inkscape:connector-curvature="0" />
      <path
         d="M 666.32,411.92 H 724 v 4.57 h -52.46 v 43.35 h 44 v 4.57 h -44 v 50.53 h 54.11 v 4.56 h -59.33 z"
         id="path14"
         inkscape:connector-curvature="0" />
      <path
         d="m 794.76,411.92 h 29.67 c 21.19,0 34.55,7.83 34.55,27.71 0,18.91 -13.36,29 -34.55,29 H 800 v 50.87 h -5.22 z m 27.71,52.16 c 19.89,0 31,-7.82 31,-24.45 0,-16.95 -11.08,-23.14 -31,-23.14 H 800 v 47.59 z m 0.65,2.94 5.87,-0.33 31.62,52.81 h -6.19 z"
         id="path16"
         inkscape:connector-curvature="0" />
      <path
         d="m 949,416.49 h -34.92 v -4.57 h 75 v 4.57 h -34.9 v 103 H 949 Z"
         id="path18"
         inkscape:connector-curvature="0" />
      <path
         d="m 1072.84,411.92 h 4.56 l 38.47,107.58 h -5.54 L 1087.84,455 c -4.57,-13 -8.48,-24.12 -12.39,-37.48 h -0.65 c -3.92,13.36 -7.83,24.44 -12.39,37.48 l -22.82,64.55 h -5.22 z M 1051,476.47 h 47.76 V 481 H 1051 Z m 18.25,-75.3 19.24,-19.56 3.58,3.91 -20.53,18.25 z"
         id="path20"
         inkscape:connector-curvature="0" />
      <path
         d="m 894.86,552.46 c 0,-4.49 4.12,-6.59 13.19,-7.6 0.09,-3.28 -0.75,-6.89 -4.95,-6.89 a 11,11 0 0 0 -6.56,2.44 l -0.67,-1 a 13,13 0 0 1 7.31,-2.61 c 4.71,0 6.13,3.53 6.13,7.56 v 13 h -1.09 l -0.17,-2.69 H 908 c -2.1,1.68 -4.62,3.19 -7.31,3.19 -3.14,0.02 -5.83,-1.58 -5.83,-5.4 z m 13.19,0.8 V 546 c -8.82,1 -11.84,3 -11.84,6.47 0,3.11 2.1,4.28 4.54,4.28 2.44,0 4.62,-1.22 7.3,-3.49 z"
         id="path22"
         inkscape:connector-curvature="0" />
      <path
         d="m 926.7,561.58 a 6.57,6.57 0 0 1 3,-5 v -0.17 a 3.59,3.59 0 0 1 -1.76,-3.19 4.71,4.71 0 0 1 2.18,-3.7 v -0.17 a 7.51,7.51 0 0 1 -2.52,-5.54 6.86,6.86 0 0 1 6.89,-7.06 6.68,6.68 0 0 1 2.61,0.51 h 6.72 v 1.17 H 939 a 7.15,7.15 0 0 1 -4.49,12.57 6.78,6.78 0 0 1 -3.44,-0.92 3.94,3.94 0 0 0 -1.77,3.11 c 0,1.51 0.84,2.77 4,2.77 h 4.46 c 4.45,0 6.46,1.43 6.46,4.53 0,3.37 -3.61,6.73 -9.24,6.73 -5.17,-0.01 -8.28,-2.28 -8.28,-5.64 z m 16.13,-1 c 0,-2.35 -1.68,-3.28 -4.87,-3.28 h -4.62 a 13.83,13.83 0 0 1 -2.44,-0.33 5.58,5.58 0 0 0 -2.86,4.53 c 0,2.69 2.52,4.54 7,4.54 4.77,-0.04 7.79,-2.78 7.79,-5.47 z m -2.77,-16.72 a 5.55,5.55 0 1 0 -11.09,0 5.56,5.56 0 1 0 11.09,0 z"
         id="path24"
         inkscape:connector-curvature="0" />
      <path
         d="m 958.12,547.38 c 0,-6.55 4.2,-10.59 8.65,-10.59 4.62,0 7.56,3.28 7.56,9.24 a 8.17,8.17 0 0 1 -0.08,1.35 h -14.79 c 0,5.38 3.11,9.32 7.9,9.32 a 9.14,9.14 0 0 0 5.54,-1.84 l 0.59,1.09 a 10.7,10.7 0 0 1 -6.22,1.93 c -5.04,0 -9.15,-3.95 -9.15,-10.5 z m 15,-1.18 c 0,-5.54 -2.52,-8.23 -6.3,-8.23 -3.61,0 -6.89,3.11 -7.31,8.23 z"
         id="path26"
         inkscape:connector-curvature="0" />
      <path
         d="m 991.63,537.3 h 1.09 l 0.17,3.19 H 993 c 2.1,-2.1 4.2,-3.7 7,-3.7 4.12,0 6,2.44 6,7.65 v 12.94 h -1.26 v -12.77 c 0,-4.46 -1.43,-6.64 -4.88,-6.64 -2.52,0 -4.36,1.34 -7,4 v 15.38 h -1.26 z"
         id="path28"
         inkscape:connector-curvature="0" />
      <path
         d="m 1025.82,552.08 v -13.61 h -3.19 v -1 l 3.19,-0.16 0.17,-5.88 h 1.09 v 5.88 h 6 v 1.17 h -6 v 13.78 c 0,2.61 0.59,4.45 3.53,4.45 a 7.36,7.36 0 0 0 2.6,-0.67 l 0.42,1.09 a 11.56,11.56 0 0 1 -3.11,0.76 c -3.69,-0.01 -4.7,-2.36 -4.7,-5.81 z"
         id="path30"
         inkscape:connector-curvature="0" />
      <path
         d="M 1049.42,550.24 V 537.3 h 1.26 v 12.77 c 0,4.45 1.43,6.63 4.88,6.63 2.52,0 4.36,-1.34 6.88,-4.36 v -15 h 1.26 v 20.08 h -1.09 l -0.17,-3.45 h -0.08 c -2,2.35 -4.12,4 -6.89,4 -4.12,-0.09 -6.05,-2.53 -6.05,-7.73 z m 5.13,-17.65 5.54,-6.47 1,0.84 -5.8,6.3 z"
         id="path32"
         inkscape:connector-curvature="0" />
      <path
         d="m 1083.44,537.3 h 1.09 l 0.17,3.78 h 0.09 c 1.34,-2.44 3.27,-4.29 5.71,-4.29 a 4.09,4.09 0 0 1 1.93,0.42 l -0.33,1.18 a 4.2,4.2 0 0 0 -1.77,-0.34 c -1.85,0 -4,1.43 -5.63,5.38 v 14 h -1.26 z"
         id="path34"
         inkscape:connector-curvature="0" />
      <path
         d="m 1105.62,552.46 c 0,-4.49 4.11,-6.59 13.19,-7.6 0.08,-3.28 -0.76,-6.89 -5,-6.89 a 11,11 0 0 0 -6.55,2.44 l -0.67,-1 a 12.91,12.91 0 0 1 7.31,-2.61 c 4.7,0 6.13,3.53 6.13,7.56 v 13 H 1119 l -0.17,-2.69 h -0.09 c -2.1,1.68 -4.62,3.19 -7.31,3.19 -3.12,0.02 -5.81,-1.58 -5.81,-5.4 z m 13.19,0.8 V 546 c -8.82,1 -11.85,3 -11.85,6.47 0,3.11 2.1,4.28 4.54,4.28 2.44,0 4.62,-1.22 7.31,-3.49 z"
         id="path36"
         inkscape:connector-curvature="0" />
      <path
         class="cls-1"
         d="m 150.15,329.75 c 3.69,-49.13 14.67,-92.45 64.24,-107.29 42.37,-12.69 87.77,0.07 106.66,33.35 33.46,59 34,127.65 -48,62.57 -37.38,-29.71 -127.05,66.75 -122.9,11.37 z"
         id="path38"
         inkscape:connector-curvature="0"
         style="fill:#c08201;stroke:#1e120d;stroke-width:0.5px;stroke-miterlimit:10" />
      <path
         class="cls-2"
         d="m 161.15,311.2 c 4.46,6.72 15.38,17.56 19.67,19.69 a 47.42,47.42 0 0 0 14.6,4.51 c 5.7,0.81 21.25,6.44 52.34,17.71 34.92,12.64 52.24,20.65 69.77,17.68 4.31,-0.73 13.2,-2.37 17,-9.41 1.48,-2.76 2.07,-6.46 3.24,-13.87 a 103.59,103.59 0 0 0 1.38,-11.16 c 0,0 4.46,-12.65 -2.78,-24.26 -8,-12.8 -28.62,-7.84 -66.06,-14 -39.35,-6.44 -54.48,-21 -60.6,-25.8 -6.37,-5 -21.77,-22.51 -31.21,-19.75 -10.62,3.1 -7.28,6.3 -8.11,6 -6.46,-2.47 -12,20.17 -13,27.14 -1.16,7.2 -3.16,15.11 3.76,25.52 z"
         id="path40"
         inkscape:connector-curvature="0"
         style="opacity:0.97000002;fill:#2b1700;stroke:#1e120d;stroke-width:0.5px;stroke-miterlimit:10" />
      <g
         class="cls-3"
         id="g46"
         style="opacity:0.49000005">
        <path
           class="cls-4"
           d="m 230.36,198.64 c 0.28,0.28 4.4,4.57 10.06,9.83 2.49,2.31 3.46,3.18 4.07,3.63 2.78,2.05 6.49,5.35 10.74,7 4.62,1.82 10.27,4.16 11.77,5 14.56,8.59 8.67,2.35 34.92,14.33 23.7,10.82 23.18,21 26.65,28.34 5.85,12.45 10.65,19.92 17.55,34.34 2.13,4.44 6.3,11.71 19.85,23.49 27.95,24.32 48.65,26.82 75,41.27 0,0 12.57,6.9 25.29,9 1.31,0.22 2.6,0.37 2.6,0.37 a 55.11,55.11 0 0 0 10.85,0.22 c 9,-0.63 17.36,0.42 32.92,-1.81 5.11,-0.73 8.24,-1.42 9.73,-4.1 1.93,-3.47 0,-8.32 -1.35,-11.3 -17,-37.77 -40.09,-52.72 -40.09,-52.72 -13,-8.44 -11.37,-3.44 -38.26,-15.89 -24.64,-11.41 -37.9,-17.55 -54.16,-29.2 -9.07,-6.49 -22,-16.77 -34.25,-16.43 -1.51,0 -9.21,5 -14,-0.07 0,0 -6.8,-0.38 -13,-1.38 -14.56,-2.33 -29.89,-15.32 -43.34,-24 -14,-9.09 -17,-6.39 -34.53,-16.55 a 211.32,211.32 0 0 1 -17.77,-11.45 c -11.27,-8.18 -11,-9.87 -23.3,-19.47 -13.35,-10.43 -16.45,-10.62 -24,-18.8 -6.1,-6.62 -4.76,-7.25 -10.51,-13.18 -9,-9.23 -12.36,-7.87 -23.39,-17.37 -8.64,-7.44 -6.93,-8.59 -16.87,-17 -6.74,-5.71 -6.54,-4.35 -17.06,-12.82 a 107.56,107.56 0 0 0 -13.93,-9.85 c -6.33,-3.73 -9.48,-4.62 -12.26,-3.45 -2.49,1 -3.77,3.39 -4.81,5.36 -0.84,1.58 -3.55,7.15 -2.29,21.64 0.67,7.69 1.51,7 2.5,17 0.73,7.38 0.33,8.36 1.51,9.9 3.14,4.1 9.07,1.21 22.78,1.9 a 76.84,76.84 0 0 1 15.58,2.22 68.51,68.51 0 0 1 20.64,9.16 c 10.76,7.2 10.25,11.8 19.22,19.59 9.94,8.63 11.76,4 39.72,17.52 15.38,7.41 21.8,12.18 25.22,15.73 z"
           id="path42"
           inkscape:connector-curvature="0"
           style="fill:#01300a" />
        <path
           class="cls-5"
           d="m 229.83,199.17 c 6.1,6.32 12.42,12.7 19.71,17.66 4.54,3.08 9.81,4.54 14.75,6.83 3.13,1.46 6,3.38 9.15,4.83 4,1.85 8.35,2.71 12.49,4.16 11,3.84 23.24,8.59 31.86,16.62 5.11,4.76 7,10.39 9.56,16.63 4.33,10.53 10.55,20.35 15.63,30.53 3.59,7.19 7.17,13.5 12.69,19.42 A 144.5,144.5 0 0 0 385.4,340 c 9.86,6.09 20.46,10.69 31.09,15.24 8.82,3.76 17.31,8 25.87,12.28 9.27,4.65 19.44,8.24 29.86,8.84 9.27,0.52 19.14,-0.08 28.4,-0.65 5.45,-0.34 11.34,-0.66 16.63,-2.06 3.61,-0.94 6.13,-2.73 6.59,-6.64 0.49,-4.27 -2,-8.67 -3.76,-12.39 a 159.31,159.31 0 0 0 -10.48,-18.7 c -7.35,-11.25 -16.36,-22.45 -27.41,-30.32 -8.67,-6.18 -19,-8 -28.73,-12 -22.31,-9.08 -45,-19.74 -64.62,-33.78 -9.1,-6.5 -18.61,-14.36 -30,-16.19 -4,-0.65 -5.84,0.26 -9.47,1.26 a 10.49,10.49 0 0 1 -5.58,0.37 c -1.85,-0.51 -2.1,-1.66 -3.38,-2 a 28.08,28.08 0 0 0 -4.4,-0.35 c -6.94,-0.62 -13.44,-1.7 -19.81,-4.64 a 117.64,117.64 0 0 1 -17,-10.13 c -8.73,-5.94 -17.15,-12.59 -27,-16.61 -10.55,-4.3 -20.4,-8.65 -30.1,-14.79 A 150.94,150.94 0 0 1 220.87,180.85 224.26,224.26 0 0 0 197,161.94 c -7.87,-5.42 -13.25,-11.53 -19,-19.13 -5.75,-7.6 -13.17,-11.46 -20.7,-16.64 -8.55,-5.89 -14.14,-14 -21.8,-20.74 -6.29,-5.53 -13.44,-10.06 -20,-15.26 a 107.62,107.62 0 0 0 -12.56,-8.75 c -3.17,-1.85 -7.3,-4.53 -11.2,-4 -5.21,0.76 -7.75,6.9 -8.74,11.46 -1.79,8.3 -0.82,17.06 0.77,25.31 0.94,4.9 1.18,9.82 1.7,14.77 0.21,2 0.5,3.66 2.14,5 1.64,1.34 4,1.49 6.08,1.51 5.74,0.05 11.4,-0.63 17.16,-0.31 a 69.73,69.73 0 0 1 33.33,10.18 c 9.34,5.83 14,15.39 22.53,22 3.85,3 8,4.5 12.65,5.94 a 193.58,193.58 0 0 1 28.8,11.86 c 7.57,3.79 15.68,7.87 21.69,14 0.68,0.69 1.74,-0.37 1.06,-1.06 -5.31,-5.4 -12.25,-9.16 -18.89,-12.62 a 196,196 0 0 0 -28.37,-12.35 c -4.69,-1.56 -9.63,-2.64 -13.83,-5.34 -7.44,-4.79 -11.4,-12.69 -17.81,-18.5 -7.72,-7 -18,-11.57 -28.08,-13.85 -9.78,-2.21 -19.37,-1.72 -29.29,-1.47 -3.23,0.08 -6.61,-0.12 -7.53,-3.76 -1.1,-4.31 -0.7,-9.18 -1.4,-13.6 -1.41,-8.92 -3.17,-17.86 -1.35,-26.9 a 20.4,20.4 0 0 1 2.32,-6.37 c 4.55,-7.7 11.35,-3.21 17.13,0.34 8,4.89 14.86,11.24 22.55,16.53 6.62,4.55 12,10 17.32,16 6.2,7 13.83,11.58 21.55,16.66 8.68,5.72 13.13,14.52 20.22,21.72 5.4,5.49 12.09,9.37 18.23,13.94 7.94,5.89 14.87,12.83 22.59,19 A 186.77,186.77 0 0 0 249,202.69 c 8.06,4.66 16.54,7.42 25,11.23 10.36,4.68 19.23,12.18 28.71,18.35 9.31,6.06 18.54,10.5 29.65,11.77 a 62.35,62.35 0 0 1 6.58,0.61 c 1.45,0.34 1.95,1 3.37,1.66 3.58,1.66 7,-0.07 10.46,-1 11.23,-2.94 24.05,7.58 32.57,13.75 a 216.48,216.48 0 0 0 26.16,16.41 c 17.57,9.27 36,18.53 55,24.27 a 54,54 0 0 1 21.44,12.46 122.56,122.56 0 0 1 16.35,18.52 152.86,152.86 0 0 1 9,13.93 c 3.11,5.45 7,11.64 8.57,17.79 2.66,10.81 -9,10.64 -16.4,11.35 -5.33,0.5 -10.67,0.64 -16,0.68 -10.18,0.09 -19.8,1 -29.79,-1.86 -9,-2.54 -16.88,-6.87 -25.18,-11 -9.38,-4.64 -19.13,-8.44 -28.67,-12.74 a 160.22,160.22 0 0 1 -29.21,-16.75 c -9.79,-7.21 -19.9,-15.68 -26.66,-25.94 -5.07,-7.7 -8.61,-16.53 -13,-24.66 a 243.64,243.64 0 0 1 -10.42,-22.28 c -6.53,-15.91 -25.47,-23 -40.57,-28.23 -4.1,-1.42 -8.37,-2.26 -12.3,-4.14 -2.92,-1.4 -5.62,-3.2 -8.56,-4.55 -4.94,-2.27 -10.23,-3.76 -14.75,-6.84 -7.19,-4.88 -13.4,-11.2 -19.41,-17.42 -0.72,-0.65 -1.78,0.41 -1.11,1.11 z"
           id="path44"
           inkscape:connector-curvature="0"
           style="fill:#1e120d" />
      </g>
      <path
         class="cls-1"
         d="m 334.37,353.42 c -5.12,46.38 -57.83,68.05 -101.76,65.76 -43.93,-2.29 -81.56,-41.58 -82,-80.55 -0.64,-63.82 9.47,-112 68.77,-33.36 31.46,41.66 121.08,-7.01 114.99,48.15 z"
         id="path48"
         inkscape:connector-curvature="0"
         style="fill:#c08201;stroke:#1e120d;stroke-width:0.5px;stroke-miterlimit:10" />
      <path
         class="cls-5"
         d="m 246.27,195.94 c -2.8,-18.6 -0.51,-38.48 11.32,-53.73 12.32,-15.88 31.89,-21 51.06,-22.72 11.83,-1.09 23.12,-2 33.84,4.15 a 93.28,93.28 0 0 1 22.95,18.93 c 13.66,15.27 22.66,34.84 24.14,55.36 0.77,10.64 -0.3,21.79 -7.86,29.82 -6.06,6.43 -13.91,13.18 -22.52,15.77 a 0.75,0.75 0 0 0 0.4,1.44 c 7.82,-2.35 14.81,-8.05 20.62,-13.59 6.42,-6.12 9.58,-12.21 10.66,-21.2 2.61,-21.79 -5.91,-44.76 -18.89,-62 a 101.28,101.28 0 0 0 -22,-21.48 c -10,-7.14 -19.57,-10.19 -31.91,-9.44 -20.6,1.25 -42.88,4.07 -57.93,19.72 -15.05,15.65 -18.46,38.43 -15.3,59.36 0.14,0.95 1.59,0.55 1.44,-0.4 z"
         id="path50"
         inkscape:connector-curvature="0"
         style="fill:#1e120d" />
      <path
         class="cls-5"
         d="m 308.65,32 c 3.64,16.82 19.5,26 27.35,40.61 7.6,14.08 4.13,32.63 0.2,47.3 a 0.75208045,0.75208045 0 0 0 1.45,0.4 c 3.71,-13.87 6.77,-30.47 1.54,-44.35 C 332.81,59 314,49.76 310.09,31.57 c -0.2,-0.94 -1.65,-0.55 -1.44,0.4 z"
         id="path52"
         inkscape:connector-curvature="0"
         style="fill:#1e120d" />
      <path
         class="cls-5"
         d="m 376,156.05 c 7.57,0.55 11.26,-6.34 15.41,-11.3 3.32,-4 7.18,-8.54 11.66,-11.18 5,-2.94 11.25,-1.93 16.78,-1.64 4.89,0.26 9.78,0.47 14.66,0.77 6.29,0.38 10.09,2.66 15.19,5.92 a 32.83,32.83 0 0 0 21.36,5.53 c 1,-0.08 1,-1.58 0,-1.5 -10.51,0.86 -16.89,-3.44 -25.45,-8.58 -7.33,-4.4 -17.52,-3.21 -25.76,-3.64 -8.56,-0.44 -15.09,-0.87 -21.76,5.14 a 86,86 0 0 0 -9.87,10.75 c -3.15,4 -6.44,8.65 -12.22,8.23 -1,-0.07 -1,1.43 0,1.5 z"
         id="path54"
         inkscape:connector-curvature="0"
         style="fill:#1e120d" />
      <path
         class="cls-5"
         d="m 237.92,113.82 c -1.94,1.81 -1.2,5.24 -0.89,7.54 0.91,6.63 2.63,13.11 3.3,19.78 0.54,5.44 -0.08,10.65 1.31,16 a 46,46 0 0 0 3.5,10.24 c 0.43,0.78 1.53,0.22 1.37,-0.58 v -0.07 c -0.19,-0.95 -1.63,-0.55 -1.45,0.39 v 0.08 l 1.37,-0.58 c -4.12,-7.61 -3.83,-15.75 -4.48,-24 a 133.19,133.19 0 0 0 -2.21,-14.44 c -0.54,-2.84 -3.34,-10.87 -0.77,-13.27 0.71,-0.66 -0.36,-1.72 -1.06,-1.06 z"
         id="path56"
         inkscape:connector-curvature="0"
         style="fill:#1e120d" />
      <path
         class="cls-5"
         d="m 238.23,118.61 c 0.34,-9 2.75,-18.71 5.69,-27.26 1.55,-4.53 3.41,-8.56 3.24,-13.48 -0.2,-6 -2.44,-11.75 -3.94,-17.52 a 0.75208045,0.75208045 0 0 0 -1.45,0.4 c 1.6,6.13 4.1,12.31 3.89,18.74 -0.17,5.14 -2.75,9.75 -4.18,14.61 -2.3,7.87 -4.44,16.28 -4.75,24.51 a 0.75,0.75 0 0 0 1.5,0 z"
         id="path58"
         inkscape:connector-curvature="0"
         style="fill:#1e120d" />
      <path
         class="cls-5"
         d="m 236.75,116.94 c -4.44,19.91 3.26,39.82 7,59.19 0.18,0.94 1.63,0.54 1.45,-0.4 -3.68,-19.1 -11.37,-38.77 -7,-58.39 0.2,-0.94 -1.24,-1.35 -1.45,-0.4 z"
         id="path60"
         inkscape:connector-curvature="0"
         style="fill:#1e120d" />
      <path
         class="cls-5"
         d="m 377.17,233.2 c 2.36,3 7.81,1.81 11.12,1.78 7.69,-0.09 15.37,0.85 23.06,0.48 5.16,-0.25 7,-2.2 11,-4.93 5.23,-3.58 9.4,-1.37 14.88,-2.06 7.08,-0.88 16.79,-5.78 21.62,-11 5.64,-6.05 10.33,-13.54 14.78,-20.45 0.53,-0.82 -0.77,-1.57 -1.29,-0.76 -8.42,13.07 -18,28 -34.87,30.64 -3.39,0.53 -6.73,-0.75 -10.14,-0.05 -4.36,0.91 -6.17,3.62 -9.77,5.67 -5.55,3.14 -14.76,1.38 -20.89,1.12 -3.41,-0.14 -6.81,-0.24 -10.22,-0.16 -2.48,0.06 -6.46,0.85 -8.2,-1.37 -0.59,-0.76 -1.65,0.31 -1.06,1.06 z"
         id="path62"
         inkscape:connector-curvature="0"
         style="fill:#1e120d" />
      <path
         class="cls-5"
         d="m 380.88,230.43 c 8.75,0.11 18,0.28 26.16,-3.35 5.24,-2.33 9.82,-5.7 15.84,-4.17 3.9,1 7.45,3.22 11.48,3.78 7.69,1.09 14.69,-6.25 20.26,-10.59 7.15,-5.56 13.72,-11.66 19,-19 0.57,-0.79 -0.73,-1.54 -1.29,-0.76 -5.78,8.1 -13.19,14.57 -21.09,20.53 a 97.53,97.53 0 0 1 -9.08,6.58 c -5.15,3 -9.5,1.49 -14.62,-0.46 -7.16,-2.72 -11.53,-2 -18.22,1.34 -9.09,4.5 -18.48,4.78 -28.43,4.65 a 0.75,0.75 0 0 0 0,1.5 z"
         id="path64"
         inkscape:connector-curvature="0"
         style="fill:#1e120d" />
      <g
         class="cls-6"
         id="g70"
         style="opacity:0.18000004">
        <path
           class="cls-4"
           d="m 332.12,276.14 c 5.2,15.57 10.52,27.34 15.61,46.71 1.25,4.75 0.4,6.39 7.31,14.43 2.34,2.72 5.64,4.22 8.73,5.84 l 20.55,10.76 c 23.41,12.26 48.7,20.29 76.15,19"
           id="path66"
           inkscape:connector-curvature="0"
           style="fill:#01300a" />
        <path
           class="cls-5"
           d="m 331.4,276.34 c 4.84,14.37 10.55,28.42 14.62,43.05 1.27,4.61 1.81,9.24 4.49,13.29 4,6.11 9.07,9.09 15.45,12.43 14.93,7.82 29.67,16 45.71,21.37 a 136.69,136.69 0 0 0 48.8,7.14 c 1,0 1,-1.54 0,-1.5 a 134.9,134.9 0 0 1 -47.59,-6.82 c -15.62,-5.13 -29.94,-13 -44.45,-20.59 -7.19,-3.77 -13.79,-7.12 -17.76,-14.65 -2.28,-4.33 -2.84,-9.9 -4.2,-14.55 -3.92,-13.41 -9.17,-26.34 -13.63,-39.57 -0.3,-0.91 -1.75,-0.52 -1.44,0.4 z"
           id="path68"
           inkscape:connector-curvature="0"
           style="fill:#1e120d" />
      </g>
      <path
         class="cls-5"
         d="m 214.28,226.29 c 11.95,-2.12 23.26,-3.84 35.3,-5 0.94,-0.08 1,-1.54 0,-1.5 -13.18,0.64 -25.73,4.18 -38.78,5.39 -9.45,0.87 -18.45,-0.78 -27.6,2.43 a 165.36,165.36 0 0 0 -15.39,6.71 c -6.35,3 -10.65,4.42 -13.56,11 a 117,117 0 0 1 -12.13,21.25 126.64,126.64 0 0 1 -8.59,10.74 13.7,13.7 0 0 1 -5.8,4.35 c -1.39,0.46 -2.88,0.22 -4.25,0.89 -5.83,2.86 -8.56,12.74 -10.74,18.33 -1.72,4.43 -3,9.07 -6.2,12.69 a 40,40 0 0 1 -5.3,4.95 c -0.76,0.6 0.31,1.65 1.06,1.06 l 0.06,-0.05 c 0.76,-0.59 -0.3,-1.64 -1.06,-1.06 l -0.06,0.05 1.06,1.06 c 3.3,-2.59 6.59,-5.68 8.44,-9.5 3.29,-6.8 5.1,-14.17 8.93,-20.75 1.38,-2.37 2.91,-4.93 5.71,-5.83 1.36,-0.44 2.82,-0.24 4.18,-0.79 2.83,-1.15 4.83,-4.07 6.75,-6.31 a 133.43,133.43 0 0 0 13.33,-18.62 86.23,86.23 0 0 0 4.93,-9.31 c 1.48,-3.39 2.53,-7 5.89,-9 6.07,-3.65 13.3,-6.47 19.87,-9.15 a 43.72,43.72 0 0 1 12.7,-3.38 c 4.92,-0.43 9.85,0.21 14.77,0 14.06,-0.68 27.65,-4.92 41.78,-5.6 v -1.5 c -12.09,1.14 -23.74,2.92 -35.7,5 -0.95,0.16 -0.55,1.61 0.4,1.44 z"
         id="path72"
         inkscape:connector-curvature="0"
         style="fill:#1e120d" />
      <path
         class="cls-5"
         d="m 97.59,322.33 c 9.36,-2.3 10.28,-15 13.59,-22.37 0.39,-0.87 -0.9,-1.63 -1.3,-0.75 -3.09,6.86 -4.06,19.55 -12.69,21.67 a 0.75208045,0.75208045 0 0 0 0.4,1.45 z"
         id="path74"
         inkscape:connector-curvature="0"
         style="fill:#1e120d" />
      <path
         class="cls-5"
         d="m 194.11,227.37 45.42,-4.6 a 0.75,0.75 0 0 0 0,-1.5 c -1.3,-0.15 -3,0.52 -4.25,0.8 -3.79,0.84 -7.56,1.76 -11.33,2.69 q -15.33,3.78 -30.54,8 c -7.18,2 -16.89,3.08 -21.94,9 a 14.38,14.38 0 0 1 -4.78,3.87 19.15,19.15 0 0 1 -7.16,1.55 7.39,7.39 0 0 0 -2.19,0.27 c -3.76,1.47 -4.63,5.4 -6.44,8.46 -5.77,9.81 -19.54,11.63 -27,19.91 -0.65,0.72 0.41,1.78 1.06,1.06 6.13,-6.79 15.47,-9.33 22.52,-15 3.7,-3 4.48,-6.56 7.14,-10.14 3,-4.06 10.52,-3 14.81,-6 3.06,-2.1 4.32,-5.33 8,-6.69 4.21,-1.57 8.64,-2.7 12.95,-3.94 9.85,-2.81 19.77,-5.42 29.71,-7.91 4.41,-1.11 8.82,-2.2 13.25,-3.22 1.78,-0.42 4.36,-1.51 6.22,-1.29 v -1.5 l -45.42,4.6 c -1,0.1 -1,1.6 0,1.5 z"
         id="path76"
         inkscape:connector-curvature="0"
         style="fill:#1e120d" />
      <path
         class="cls-5"
         d="m 333.61,283.05 c 15.56,41.24 5.72,91.62 -30.38,118.82 -7.38,5.56 -15.68,10.58 -24.55,13.35 -6.93,2.17 -14.51,3.31 -21.68,4.6 -18.56,3.35 -39.1,-1.24 -55.82,-9.38 -20.25,-9.87 -37.1,-26.1 -43.8,-48 -6.52,-21.26 -5.79,-44.19 -3,-66 1.6,-12.46 5.33,-24.35 12.41,-34.81 5.45,-8.05 12.54,-14.41 20.3,-20.13 11.61,-8.54 24.56,-15.2 38.65,-18.54 45.62,-10.84 91.11,17.74 107.87,60.11 0.35,0.89 1.8,0.5 1.44,-0.4 -14.76,-37.32 -51.58,-65.1 -92.57,-63.52 -34.35,1.32 -73.2,24.53 -85.15,57.75 -4,11.09 -5,22.85 -5.77,34.52 -0.78,11.43 -1,22.87 0.55,34.24 3.15,22.52 13.09,42 31.47,55.78 a 104.62,104.62 0 0 0 64.59,20.65 c 5.94,-0.07 11.49,-1.28 17.29,-2.48 9.23,-1.92 17.54,-3.75 25.9,-8.28 a 94.67,94.67 0 0 0 44.94,-52.7 112.6,112.6 0 0 0 -1.25,-76 c -0.33,-0.87 -1.78,-0.48 -1.44,0.42 z"
         id="path78"
         inkscape:connector-curvature="0"
         style="fill:#1e120d" />
      <path
         class="cls-5"
         d="m 150.35,312.52 c -3.6,3.42 -4.88,7.54 -5.35,12.4 a 77,77 0 0 0 -0.3,11.06 c 0.18,3.66 0.78,7.48 -0.36,11 -1.36,4.23 -3,6.3 -1.17,10.49 a 12.53,12.53 0 0 1 1.19,8 c -2.24,11.46 -12.63,19.31 -15.84,30.53 -1.85,6.45 -2.59,13.14 -4.14,19.65 -1.16,4.83 -2,8 -7.58,7.78 -2.5,-0.11 -4.26,-0.38 -6.57,0.65 -0.89,0.38 -0.12,1.68 0.75,1.29 4.59,-2 10.4,2 13.14,-3.65 2.74,-5.65 3,-12.62 4.26,-18.61 1.45,-7.17 3.64,-13.46 7.91,-19.44 3.19,-4.47 6.42,-9.09 8.42,-14.24 a 16.58,16.58 0 0 0 1.34,-8 c -0.27,-2.1 -1.42,-3.64 -2,-5.59 -1.23,-4.09 1.79,-7.22 2.35,-11.09 0.42,-2.9 -0.06,-5.94 -0.2,-8.85 -0.34,-7.52 -0.63,-16.84 5.21,-22.4 0.7,-0.67 -0.36,-1.73 -1.06,-1.06 z"
         id="path80"
         inkscape:connector-curvature="0"
         style="fill:#1e120d" />
      <path
         class="cls-5"
         d="m 153.85,324.31 a 0.75,0.75 0 0 0 0,-1.5 0.75,0.75 0 0 0 0,1.5 z"
         id="path82"
         inkscape:connector-curvature="0"
         style="fill:#1e120d" />
      <path
         class="cls-5"
         d="m 151.41,338.63 q 0,-0.47 0,-0.93 a 0.76,0.76 0 0 0 -1.48,-0.2 c -0.76,2.13 -0.81,4.52 -1.59,6.69 -1.15,3.2 -2.83,6.19 -4,9.42 -2,5.85 -3.88,12.59 -2.46,18.8 0.21,0.94 1.66,0.54 1.44,-0.4 -1.53,-6.71 0.94,-14.35 3.42,-20.56 1.1,-2.75 2.57,-5.31 3.42,-8.15 0.52,-1.75 0.57,-3.71 1.18,-5.4 l -1.47,-0.2 q 0,0.46 0,0.93 c 0,1 1.45,1 1.5,0 z"
         id="path84"
         inkscape:connector-curvature="0"
         style="fill:#1e120d" />
      <path
         class="cls-5"
         d="m 141.28,373.25 c -4.26,6.68 -2.62,15.25 -6.24,22.14 -4.46,8.52 -10.08,15.73 -12.09,25.38 -0.19,0.94 1.25,1.35 1.45,0.4 a 52.35,52.35 0 0 1 5.81,-14.89 c 2.14,-3.85 5,-7.43 6.79,-11.45 2.95,-6.61 1.59,-14.56 5.57,-20.82 0.52,-0.82 -0.78,-1.57 -1.29,-0.76 z"
         id="path86"
         inkscape:connector-curvature="0"
         style="fill:#1e120d" />
      <path
         class="cls-5"
         d="m 248.37,498.32 c -3,-5 -6.67,-11.15 -4.74,-17.2 1.57,-4.95 6.87,-9.06 10.27,-12.83 q 9,-10 17.25,-20.63 c 5.9,-7.67 11.37,-15.63 16.63,-23.76 1.72,-2.66 3.82,-5.35 4.81,-8.4 a 28.73,28.73 0 0 1 3.05,-6.77 c 0.52,-0.82 -0.78,-1.57 -1.29,-0.76 a 28,28 0 0 0 -3.07,6.62 c -1.3,4 -4.09,7.48 -6.36,11 A 327.12,327.12 0 0 1 264.23,454 c -6.27,7.68 -13.89,14.56 -19.76,22.51 -5.45,7.38 -1.65,15.63 2.6,22.58 0.51,0.83 1.81,0.07 1.3,-0.75 z"
         id="path88"
         inkscape:connector-curvature="0"
         style="fill:#1e120d" />
      <path
         class="cls-5"
         d="m 307.44,398.55 c -3.87,8.18 -9.11,15.58 -12.89,23.8 -1.24,2.7 -2.26,5.71 -3.91,8.2 A 99.53,99.53 0 0 1 282.9,440 c -5.27,6.13 -12.8,8.9 -18.48,14.46 -6.46,6.33 -10.35,14.57 -18,19.81 -0.79,0.54 0,1.84 0.76,1.29 7.06,-4.82 11.21,-11.87 16.65,-18.23 5.71,-6.67 14.39,-9.55 20.15,-16.27 4.55,-5.3 8.31,-10 11.18,-16.35 4,-8.79 9.48,-16.69 13.59,-25.39 0.41,-0.87 -0.88,-1.63 -1.29,-0.76 z"
         id="path90"
         inkscape:connector-curvature="0"
         style="fill:#1e120d" />
      <path
         class="cls-5"
         d="m 238.22,117.14 c 0.64,-13.15 4.19,-26.37 9,-38.59 0.35,-0.9 -1.1,-1.29 -1.45,-0.39 -4.83,12.35 -8.37,25.69 -9,39 0,1 1.46,1 1.5,0 z"
         id="path92"
         inkscape:connector-curvature="0"
         style="fill:#1e120d" />
      <path
         class="cls-5"
         d="m 245.11,175.55 a 74.92,74.92 0 0 1 -6.22,-14.91 c -1.58,-4.82 -3.58,-10.48 -3,-15.63 0.1,-1 -1.4,-0.95 -1.5,0 -0.57,5.31 1.46,11.07 3.08,16 a 77.35,77.35 0 0 0 6.37,15.27 0.75292762,0.75292762 0 0 0 1.3,-0.76 z"
         id="path94"
         inkscape:connector-curvature="0"
         style="fill:#1e120d" />
      <path
         class="cls-5"
         d="m 239.37,100.21 c -2,16.4 -6.1,33.24 -4.76,49.83 0.08,1 1.58,1 1.5,0 -1.34,-16.61 2.77,-33.41 4.76,-49.83 0.12,-0.95 -1.38,-0.95 -1.5,0 z"
         id="path96"
         inkscape:connector-curvature="0"
         style="fill:#1e120d" />
      <path
         class="cls-5"
         d="m 239.69,152 c -0.24,-8.24 4,-15.77 4.41,-23.92 0.12,-2.55 -0.18,-5.26 -1.83,-7.32 -0.9,-1.13 -3.52,-3.35 -5.13,-2.86 a 0.76,0.76 0 0 0 -0.52,0.93 4.48,4.48 0 0 0 1.78,2.22 0.76,0.76 0 0 0 1,-1 c -1.56,-3.31 -3.47,-6.68 -4.57,-10.29 -1.05,-3.41 -0.79,-5.68 1.36,-8.44 a 32.49,32.49 0 0 0 3,-4.81 c 4.05,-7.73 7,-17 6.78,-25.81 a 0.75,0.75 0 0 0 -1.5,0 c 0.3,11.23 -4.42,22 -10.64,31 -4,5.75 1.74,13.82 4.23,19.12 l 1,-1 c -1.93,-1 1.08,1 1.33,1.28 a 8.32,8.32 0 0 1 2.12,5 c 0.26,3 -0.56,6.13 -1.27,9 -1.24,5.61 -3.24,11.14 -3.05,16.9 0,1 1.53,1 1.5,0 z"
         id="path98"
         inkscape:connector-curvature="0"
         style="fill:#1e120d" />
      <path
         class="cls-5"
         d="m 375,235.72 c 9.15,0.91 18.49,1.64 27.6,0 a 38.19,38.19 0 0 0 11.71,-4 30.69,30.69 0 0 0 4.86,-3.36 c 1.73,-1.45 2.34,-2.12 4.73,-2.78 2.83,-0.78 2.93,-0.41 5.45,0.51 8.43,3.06 15.32,-2.16 21.19,-7.87 7.51,-7.31 15.57,-14 23,-21.42 0.69,-0.68 -0.37,-1.74 -1.06,-1.06 -6.51,6.52 -13.7,12.32 -20.29,18.75 -3.88,3.79 -7.67,7.92 -12.77,10.06 -3.93,1.65 -7,0.92 -10.95,-0.48 a 9.31,9.31 0 0 0 -4.14,-0.84 c -3.42,0.37 -5.64,3.85 -8.32,5.7 a 34.78,34.78 0 0 1 -13.05,5.2 c -9.19,1.78 -18.69,1 -27.93,0.09 -1,-0.09 -0.95,1.41 0,1.5 z"
         id="path100"
         inkscape:connector-curvature="0"
         style="fill:#1e120d" />
      <path
         class="cls-5"
         d="m 126.52,273.39 c -3.53,2.43 -6,7 -8.2,10.51 a 148.33,148.33 0 0 0 -8.88,16 c -0.41,0.87 0.89,1.64 1.3,0.76 a 145.49,145.49 0 0 1 7.54,-13.82 c 2.41,-4 5.08,-9.44 9,-12.13 0.79,-0.55 0,-1.85 -0.76,-1.3 z"
         id="path102"
         inkscape:connector-curvature="0"
         style="fill:#1e120d" />
      <path
         class="cls-5"
         d="m 308.65,32 c 1.73,7.51 6.92,12.78 12.24,18 7.52,7.44 13.19,15.66 16.59,25.75 0.31,0.91 1.76,0.52 1.45,-0.4 A 62,62 0 0 0 326.05,53.11 c -6.13,-6.68 -13.81,-12.25 -16,-21.55 -0.21,-0.94 -1.66,-0.54 -1.44,0.4 z"
         id="path104"
         inkscape:connector-curvature="0"
         style="fill:#1e120d" />
      <path
         class="cls-5"
         d="m 337.45,75.56 c 0.75,14.4 -1.19,29.28 -4.37,43.31 -0.22,0.94 1.23,1.34 1.44,0.4 3.21,-14.14 5.18,-29.21 4.43,-43.71 -0.05,-1 -1.55,-1 -1.5,0 z"
         id="path106"
         inkscape:connector-curvature="0"
         style="fill:#1e120d" />
      <path
         class="cls-5"
         d="m 378,159 c 3.69,-1 6.17,-3.38 8.55,-6.25 3.3,-4 6.56,-8 9.86,-11.95 0.61,-0.74 -0.44,-1.81 -1.06,-1.06 -2.76,3.31 -5.48,6.64 -8.22,10 -2.74,3.36 -5.17,6.66 -9.53,7.85 A 0.75,0.75 0 0 0 378,159 Z"
         id="path108"
         inkscape:connector-curvature="0"
         style="fill:#1e120d" />
      <path
         class="cls-5"
         d="m 396.41,140.78 c 6.88,-7.39 15.5,-8.83 25.12,-7.69 1,0.12 1,-1.38 0,-1.5 -10,-1.19 -19,0.47 -26.18,8.13 -0.66,0.7 0.4,1.76 1.06,1.06 z"
         id="path110"
         inkscape:connector-curvature="0"
         style="fill:#1e120d" />
      <path
         class="cls-5"
         d="m 418.88,132.91 c 9.68,0.46 18.46,0.72 27.52,4.18 6.05,2.31 12,5.26 18.28,7 a 0.75,0.75 0 0 0 0.4,-1.44 c -6.56,-1.87 -12.86,-5 -19.24,-7.4 -8.86,-3.34 -17.51,-3.43 -27,-3.87 -1,0 -1,1.46 0,1.5 z"
         id="path112"
         inkscape:connector-curvature="0"
         style="fill:#1e120d" />
      <path
         class="cls-5"
         d="m 380,161.73 c 4.95,-3.61 8.29,-9.83 12.18,-14.47 5.87,-7 13.23,-14.32 22.95,-14.54 a 0.75,0.75 0 0 0 0,-1.5 c -8.49,0.19 -15.32,5.48 -20.9,11.45 -5.08,5.43 -9,13.37 -15,17.76 -0.77,0.56 0,1.87 0.76,1.3 z"
         id="path114"
         inkscape:connector-curvature="0"
         style="fill:#1e120d" />
      <path
         class="cls-5"
         d="m 422.41,133.1 a 0.75,0.75 0 0 0 0,-1.5 0.75,0.75 0 0 0 0,1.5 z"
         id="path116"
         inkscape:connector-curvature="0"
         style="fill:#1e120d" />
      <path
         class="cls-5"
         d="m 334.25,281 c -0.7,-2.3 -1.15,0.88 -1.16,0.92 -0.06,0.34 0.53,1.31 0.66,1.64 0.85,2.14 1.62,4.32 2.37,6.5 2.35,6.8 4.39,13.72 6.07,20.73 a 132.19,132.19 0 0 1 4,26.38 c 0.25,7.4 -1.61,15.1 -0.2,22.44 1.5,7.8 8.58,4.16 12.64,9.35 5.85,7.49 5.05,19 4.5,27.76 a 38.6,38.6 0 0 0 1.84,14 c 1.87,6.32 2.64,12.08 1.11,18.61 a 56.5,56.5 0 0 1 -3.93,10.85 c -1.14,2.47 -3.08,3.42 -0.65,4.51 0.21,0.09 0.82,-2.92 -0.63,-1.33 -0.54,0.59 -0.43,4.16 -0.55,4.89 -0.78,5 -1.81,10 -2.81,15 l 1.47,0.2 c 0.53,-12.4 8,-22.6 11.22,-34.27 2.42,-8.8 1,-18.58 -0.66,-27.44 -1.66,-8.86 -6.45,-16.91 -11.32,-24.51 a 31.24,31.24 0 0 0 -3.37,-4.46 c -0.9,-1 -7.27,-8.22 -4.31,-8.83 1.11,-0.23 1.94,1.65 3.35,0.76 3,-1.92 -0.24,-13.44 -0.77,-16.31 -0.32,-1.74 -1.39,-11.85 -5,-10.64 -2.09,0.7 -1.63,4.42 -2.66,5.76 -2.07,2.68 -2.29,-0.95 -2.71,-2.69 a 42.36,42.36 0 0 1 -0.89,-6.46 c -0.77,-9 -1.66,-18.06 -1.75,-27.11 -0.07,-7.84 -1.72,-14.72 -4.28,-22.2 -3.5,-10.27 -7.75,-20.75 -14.1,-29.61 -0.55,-0.78 -1.86,0 -1.29,0.75 6,8.43 10.11,18.29 13.52,28 2.33,6.65 4.75,13.59 4.66,20.69 -0.12,8.81 0.74,17.66 1.48,26.42 0.27,3.22 0,13.83 3.71,15.28 1.42,0.55 2.05,-0.52 2.69,-1.64 0.53,-0.95 0.93,-5.14 1.9,-5.46 1.25,-0.42 1.77,2.7 2,3.64 a 87.28,87.28 0 0 1 2.06,10.52 c 0.22,1.46 0.45,2.92 0.62,4.38 0.09,0.82 0.68,3.19 0.27,4 -1.31,2.61 -0.64,0.68 -1.89,0.69 -1,0 -1.42,-0.85 -2.41,0 -1.85,1.63 0.45,6 1.43,7.36 1.18,1.69 2.77,3 4.1,4.59 a 57.75,57.75 0 0 1 5.08,7.75 71.38,71.38 0 0 1 7,14.12 c 3.15,9.59 4.75,22.49 2.07,32.2 -3.26,11.83 -10.74,22.1 -11.27,34.67 0,0.83 1.31,1 1.47,0.2 1.17,-5.76 2.44,-11.55 3.17,-17.39 0.1,-0.72 0.79,-3.21 -0.06,-3.77 -1.28,-0.85 -2.18,1.38 -2,2.41 a 0.74,0.74 0 0 0 0.73,0.55 c 0.92,-0.12 1.18,-1.39 1.53,-2.07 a 62.54,62.54 0 0 0 5,-12.77 33.5,33.5 0 0 0 1.11,-11.83 c -0.47,-4.64 -2.45,-8.89 -3.37,-13.43 -1.07,-5.29 0,-10.46 0.14,-15.77 a 45.38,45.38 0 0 0 -1.6,-12.58 c -1,-3.83 -2.36,-8.44 -5.7,-10.92 -2.13,-1.58 -4.35,-1.39 -6.75,-2.08 -4.4,-1.29 -4.07,-6.82 -4,-10.63 0.06,-7.51 0.92,-14.77 0.19,-22.3 a 154.23,154.23 0 0 0 -3.92,-22 c -1.65,-6.71 -3.64,-13.34 -5.9,-19.86 -1,-2.76 -1.75,-6.08 -3.29,-8.6 a 0.76,0.76 0 0 0 -1,-0.27 v 0 a 0.76,0.76 0 0 0 -0.35,0.84 c 0,0.06 0,0.13 0.05,0.18 0.29,0.93 1.73,0.53 1.45,-0.39 z"
         id="path118"
         inkscape:connector-curvature="0"
         style="fill:#1e120d" />
      <g
         class="cls-7"
         id="g126"
         style="opacity:0.6">
        <g
           class="cls-8"
           id="g124"
           style="opacity:0.62999998">
          <path
             class="cls-4"
             d="m 255,204.41 c 2,2.19 -33.42,-30.18 -49,-39.59 0,0 -9.66,-5.58 -13.68,-9.53 -3.52,-3.46 -6.29,-7.7 -9.46,-11.53 C 176.4,136 168.4,129.94 160.48,124 147.28,114 138.76,104.2 125.57,94.26 118.88,89.26 108.3,80.58 108.3,80.58 84.8,69.94 79.58,69.66 76.73,87.58 c -1.32,8.29 -3.83,22 -1.76,31.39 5.24,23.73 7.77,11.1 8,57.14 a 19.27,19.27 0 0 0 7.88,16.08 c 2.07,1.62 9.65,8.06 12,8.68 10.46,2.73 14.53,2.24 22.22,4.34 6.06,1.66 21,8.1 28.19,11.56 1.68,0.81 4.47,2 6.21,2.65 18.24,6.75 25.44,5.85 54.6,6.14 16.36,0.16 18.12,-0.34 24.37,0.47 a 157.6,157.6 0 0 1 24.58,5.5 c 5.42,1.63 9.68,3.2 12.23,4.15 a 147.81,147.81 0 0 1 17.31,7.22 83.69,83.69 0 0 1 15.89,10 82,82 0 0 1 10,9.65 c 4.74,5.4 4.48,7.66 8.62,11.68 2.44,2.37 4,3.11 10.14,6.85 4.92,3 9.72,6.16 14.62,9.18 15.67,9.69 16.78,36 36,55.23 12.26,12.25 26.38,16.15 32.52,17.85 17.44,4.82 21.55,-0.86 48.26,1.82 22.39,2.24 31.74,7.46 35.85,1.87 5.13,-7 -3.79,-22.82 -5.38,-25.55 -6.61,-11.38 -16.1,-18.88 -39.14,-30.12 -34.22,-16.7 -46.47,-16.34 -69.13,-31.69 -10.52,-7.13 -22.05,-18 -22.05,-18 -11.78,-9.8 -11.41,-9.78 -14.48,-12 C 352,248 344.46,242.73 323,234 c -12.39,-5.06 -15,-5.4 -28.27,-10.6 -11.39,-4.46 -20.48,-8.52 -26.28,-11.2"
             id="path120"
             inkscape:connector-curvature="0"
             style="fill:#01300a" />
          <path
             class="cls-5"
             d="m 254.47,204.94 v 0 l 0.85,-1.11 c -0.5,-0.13 -2.55,-2.26 -3.33,-2.94 l -7.7,-6.71 c -6.73,-5.84 -13.51,-11.61 -20.45,-17.19 a 170.73,170.73 0 0 0 -17.55,-12.84 c -3.21,-2 -6.44,-3.89 -9.48,-6.12 -5.52,-4.05 -9.09,-9.57 -13.41,-14.76 -8.88,-10.67 -20.76,-18 -31.17,-26.94 -10.07,-8.67 -19.75,-17.6 -30.23,-25.78 -3.66,-2.85 -7.27,-5.75 -10.87,-8.66 -3,-2.39 -6.15,-3.67 -9.68,-5.14 -5.08,-2.13 -12.78,-6 -18.46,-3.6 -5.19,2.24 -6.13,9.43 -7,14.28 -1.73,10.35 -3.84,21.36 -1.75,31.79 1.9,9.52 6.15,18.24 7,28 1,10.15 0.16,20.39 1,30.53 0.73,9.46 7.06,14.49 14.09,19.88 a 24.59,24.59 0 0 0 11.31,5.22 c 4.86,1 9.81,1.43 14.65,2.52 9.59,2.17 18.83,6.66 27.71,10.77 7.77,3.59 15.63,6.78 24.08,8.43 8.66,1.69 17.55,1.67 26.33,1.73 10.49,0.07 21,-0.09 31.47,0.09 9.62,0.17 19.23,2.54 28.44,5.2 22.63,6.53 48.72,16.21 61.74,37.25 5.1,8.24 13.3,11.91 21.29,17 4.82,3.06 10.07,5.76 13.88,10.11 3.43,3.91 5.86,8.63 8.1,13.3 5,10.49 9.34,21.31 16.54,30.59 a 66.17,66.17 0 0 0 26,20 74.4,74.4 0 0 0 21.51,6 c 8.18,0.85 16.42,-0.67 24.61,-0.7 12.41,-0.05 24.54,2 36.72,4.17 4.32,0.76 10.56,2.42 14,-1.31 4.68,-5.07 1.12,-14.2 -1.15,-19.46 a 56.93,56.93 0 0 0 -11.1,-17.23 c -6.74,-7 -15.34,-12 -23.85,-16.45 A 335,335 0 0 0 435,299.49 c -8.9,-3.52 -18,-6.6 -26.66,-10.7 A 134.54,134.54 0 0 1 381,271.26 c -9.5,-7.74 -18.1,-17 -28.4,-23.7 -15.24,-9.95 -33,-15.77 -50,-22 -11.43,-4.2 -22.68,-8.93 -33.74,-14 -0.87,-0.4 -1.63,0.89 -0.76,1.3 20.08,9.25 41.12,15.88 61.37,24.66 10.56,4.58 20.83,9.49 29.64,17 13.59,11.55 26.57,24 42.34,32.55 16.85,9.17 35.67,14.37 53,22.52 17.16,8 35.71,16.84 45.08,34.22 2.86,5.29 10.24,19.58 3,24.13 -2.6,1.61 -6.57,0.77 -9.36,0.33 -4.64,-0.74 -9.24,-1.72 -13.88,-2.45 a 152.07,152.07 0 0 0 -33.69,-1.81 c -7.66,0.5 -15,1.06 -22.52,-0.72 -21.89,-5.16 -38.48,-18.38 -48.73,-38.42 -4.43,-8.65 -7.64,-18.09 -13.12,-26.17 -5.86,-8.63 -15.68,-13.44 -24.39,-18.7 -3.61,-2.18 -7.38,-4.15 -10.24,-7.32 -3.74,-4.14 -6.12,-9.2 -10,-13.3 a 86.94,86.94 0 0 0 -25.17,-17.83 c -17.11,-8.34 -37.8,-15.45 -56.91,-16.56 -18.2,-1.06 -36.64,1.15 -54.8,-1 -18.16,-2.15 -33.82,-12.26 -50.86,-18.23 -8.5,-3 -18.68,-2.09 -26.77,-5.93 -3.74,-1.78 -7,-5 -10.19,-7.64 -5.26,-4.29 -7.83,-9.2 -8.15,-15.94 -0.64,-13.48 1.07,-27.81 -3.19,-40.87 -1.38,-4.24 -2.86,-8.4 -3.93,-12.74 -2.79,-11.2 -1.14,-22.27 0.69,-33.5 1,-6 1.92,-15.29 9.85,-15.05 3.85,0.11 7.77,1.74 11.29,3.13 4.08,1.61 8.22,3.06 11.63,5.82 8.36,6.76 17.1,13.1 25.2,20.18 10,8.78 19.84,17.54 30.37,25.72 A 114.19,114.19 0 0 1 180,141.62 c 4.37,4.77 7.72,10.56 12.56,14.91 4.84,4.35 11.07,7.46 16.58,11.21 13.59,9.24 26,20.38 38.34,31.17 1.87,1.62 5,5.65 7.43,6.33 a 0.76,0.76 0 0 0 0.85,-1.1 2.56,2.56 0 0 0 -0.2,-0.26 c -0.64,-0.73 -1.69,0.34 -1.06,1.06 z"
             id="path122"
             inkscape:connector-curvature="0"
             style="fill:#1e120d" />
        </g>
      </g>
      <path
         class="cls-9"
         d="m 268.53,130.18 c 27.1,-20.83 69,-22.72 100,12.85 26.54,30.52 32.19,84.87 -2.57,96.29 -35.37,11.62 -33.06,4.33 -75.52,-10.68 C 241.88,211.48 225,163.67 268.53,130.18 Z"
         id="path128"
         inkscape:connector-curvature="0"
         style="opacity:0.77999998;fill:#764c00;stroke:#1e120d;stroke-width:0.5px;stroke-miterlimit:10" />
      <path
         class="cls-10"
         d="m 269.22,131.32 c 27.1,-20.83 69,-22.72 99.95,12.84 26.53,30.52 32.83,93.84 -2.81,101.55 l -1.61,0.36 c 0,0 -2.13,0.47 -4.31,0.88 a 126.19,126.19 0 0 1 -28.52,2.35 23.73,23.73 0 0 1 -11.53,-3.42 65.77,65.77 0 0 1 -9.51,-6.75 c -4.85,-2.19 -10.67,-6 -19.8,-9.35 -55.17,-20.14 -65.42,-64.98 -21.86,-98.46 z"
         id="path130"
         inkscape:connector-curvature="0"
         style="opacity:0.72000002;fill:#2b1700;stroke:#1e120d;stroke-width:0.5px;stroke-miterlimit:10" />
      <g
         class="cls-11"
         id="g134"
         style="opacity:0.32000002">
        <path
           class="cls-5"
           d="m 341.11,264.72 c 9.59,8.53 18.11,18.48 26,28.55 a 164.52,164.52 0 0 1 13.11,18.9 c 2.92,5 6,10.75 6.29,16.7 0,1 1.54,1 1.5,0 -0.54,-12.56 -10.88,-25 -18.15,-34.49 -8.35,-10.87 -17.45,-21.59 -27.7,-30.73 -0.72,-0.64 -1.79,0.42 -1.07,1.07 z"
           id="path132"
           inkscape:connector-curvature="0"
           style="fill:#1e120d" />
      </g>
      <g
         class="cls-12"
         id="g138"
         style="opacity:0.73999999">
        <path
           class="cls-5"
           d="m 387.48,323.33 a 20.05,20.05 0 0 1 14.71,3.07 c 2.34,1.56 4.32,3.31 7.08,4.11 3.47,1 7.21,0.84 10.75,1.44 a 49.71,49.71 0 0 1 12.51,4 c 0.87,0.4 1.63,-0.89 0.75,-1.3 a 52.39,52.39 0 0 0 -11.23,-3.82 c -4.93,-1 -10.68,-0.39 -15.13,-2.9 -3.17,-1.79 -5.66,-4.21 -9.2,-5.38 a 21.94,21.94 0 0 0 -10.64,-0.65 c -0.95,0.16 -0.55,1.61 0.4,1.45 z"
           id="path136"
           inkscape:connector-curvature="0"
           style="fill:#1e120d" />
      </g>
      <g
         class="cls-12"
         id="g142"
         style="opacity:0.73999999">
        <path
           class="cls-5"
           d="m 431.29,334.6 a 71.61,71.61 0 0 1 28,-5.25 0.75,0.75 0 0 0 0,-1.5 72.9,72.9 0 0 0 -28.36,5.3 c -0.88,0.36 -0.5,1.81 0.4,1.45 z"
           id="path140"
           inkscape:connector-curvature="0"
           style="fill:#1e120d" />
      </g>
      <g
         class="cls-12"
         id="g146"
         style="opacity:0.73999999">
        <path
           class="cls-5"
           d="m 404.31,326.41 a 77.68,77.68 0 0 1 19.19,-23.2 c 0.74,-0.61 -0.32,-1.66 -1.06,-1.06 A 78.93,78.93 0 0 0 403,325.65 c -0.46,0.85 0.83,1.61 1.3,0.76 z"
           id="path144"
           inkscape:connector-curvature="0"
           style="fill:#1e120d" />
      </g>
      <g
         class="cls-11"
         id="g150"
         style="opacity:0.32000002">
        <path
           class="cls-5"
           d="m 370.05,296.3 a 115,115 0 0 1 36.07,-5.41 0.75,0.75 0 0 0 0,-1.5 116.86,116.86 0 0 0 -36.47,5.46 c -0.91,0.29 -0.52,1.74 0.4,1.45 z"
           id="path148"
           inkscape:connector-curvature="0"
           style="fill:#1e120d" />
      </g>
      <g
         class="cls-12"
         id="g154"
         style="opacity:0.73999999">
        <path
           class="cls-5"
           d="m 414.36,331.16 a 68.1,68.1 0 0 0 -1,23.56 c 0.13,0.94 1.63,0.95 1.5,0 a 67,67 0 0 1 0.91,-23.16 c 0.2,-0.94 -1.24,-1.34 -1.44,-0.4 z"
           id="path152"
           inkscape:connector-curvature="0"
           style="fill:#1e120d" />
      </g>
      <g
         class="cls-12"
         id="g158"
         style="opacity:0.73999999">
        <path
           class="cls-5"
           d="m 444.91,331.36 7.44,28.47 a 0.75,0.75 0 0 0 1.44,-0.4 L 446.36,331 a 0.75076628,0.75076628 0 0 0 -1.45,0.39 z"
           id="path156"
           inkscape:connector-curvature="0"
           style="fill:#1e120d" />
      </g>
      <g
         class="cls-11"
         id="g162"
         style="opacity:0.32000002">
        <path
           class="cls-5"
           d="m 452.9,355 a 94.65,94.65 0 0 1 24.59,-4.26 c 1,0 1,-1.54 0,-1.5 a 96,96 0 0 0 -25,4.31 c -0.92,0.29 -0.52,1.74 0.4,1.45 z"
           id="path160"
           inkscape:connector-curvature="0"
           style="fill:#1e120d" />
      </g>
      <g
         class="cls-13"
         id="g166"
         style="opacity:0.5">
        <path
           class="cls-5"
           d="m 458,329.67 a 120.89,120.89 0 0 0 13.32,-7.94 c 0.79,-0.54 0,-1.84 -0.76,-1.29 a 122.48,122.48 0 0 1 -13.32,7.94 c -0.86,0.44 -0.1,1.73 0.76,1.29 z"
           id="path164"
           inkscape:connector-curvature="0"
           style="fill:#1e120d" />
      </g>
      <path
         class="cls-14"
         d="m 214.17,244.05 c 1.14,0.5 1.19,1.63 2.3,2.51 0.84,0.67 1.29,0.41 2.87,0.75 a 14.17,14.17 0 0 1 5.45,2.68 c 1,0.82 0.56,0.71 2.77,2.84 a 25,25 0 0 0 3.73,3.19 c 0.67,0.46 1.39,0.85 2.83,1.65 a 15.68,15.68 0 0 1 2.83,1.64 c 1.32,1.15 1.06,1.75 2.29,2.82 a 10.18,10.18 0 0 0 3.55,1.68 c 2.23,0.79 2.27,0.5 3.34,1.08 1.78,0.95 0.27,0.19 1.78,0.95 a 22.46,22.46 0 0 0 5.58,2.13 c 2.75,0.58 2.75,1.71 5.23,2.07 2.1,0.3 5,0 5.68,0.88 1,1.23 0.09,4.27 -1.3,3.84 a 36.32,36.32 0 0 1 -10.13,-0.53 39.55,39.55 0 0 1 -5.49,-1.79 53.89,53.89 0 0 1 -7.83,-3.4 39.68,39.68 0 0 1 -7,-4.86 c -6.11,-5.31 -8.78,-7.8 -14.58,-10.72 -2,-1 -1.63,1 -4,-0.44 a 6,6 0 0 1 -3,-3.75 c -0.4,-1.6 -0.3,-4.09 0.95,-5 a 2.27,2.27 0 0 1 2.15,-0.22 z"
         id="path168"
         inkscape:connector-curvature="0"
         style="opacity:0.88999999;stroke:#1e120d;stroke-width:0.5px;stroke-miterlimit:10" />
      <path
         class="cls-15"
         d="m 260.92,162.45 c 0.38,-8.2 3.51,-14.39 5.52,-16.83 2.68,-3.29 11.2,-8.69 17.89,-11.2 0,0 11.8,-2 20.47,-1.78 8.38,0.22 8.38,0.22 10.38,0.55 5.48,0.9 9.27,4.17 13.37,7.72 4.88,4.21 5.42,6.62 5.55,7.31 0.58,3.07 -0.35,7.7 -0.35,7.7 v 0 c 0,0 -4.88,2.85 -8.6,2.36 -4.17,-0.56 -3.86,-4.93 -8.81,-7.48 -3,-1.58 -6.81,-1.07 -14.37,-0.05 -5,0.67 -7.54,1 -10.59,2.95 a 22,22 0 0 0 -6.15,6 c -3.06,4.42 -2.11,6.37 -4.32,8.9 -4,4.54 -12.86,4.89 -15.09,1.32 -0.98,-1.58 -5.14,-2.15 -4.9,-7.47 z"
         id="path170"
         inkscape:connector-curvature="0"
         style="opacity:0.98999999;fill:#2b1700;stroke:#1e120d;stroke-width:0.5px;stroke-miterlimit:10" />
      <g
         class="cls-16"
         id="g174"
         style="opacity:0.33000004">
        <path
           class="cls-5"
           d="m 112.28,109.91 c 5.11,7.14 9.91,14.68 15.66,21.33 5.08,5.87 13,8.8 17.6,14.92 0.58,0.76 1.88,0 1.3,-0.75 -4.14,-5.49 -10.93,-8 -15.7,-12.9 -6.77,-6.87 -12,-15.53 -17.56,-23.35 -0.56,-0.78 -1.86,0 -1.3,0.75 z"
           id="path172"
           inkscape:connector-curvature="0"
           style="fill:#1e120d" />
      </g>
      <g
         class="cls-16"
         id="g178"
         style="opacity:0.33000004">
        <path
           class="cls-5"
           d="m 146.19,145 c -8.62,-0.47 -17.23,-1 -25.84,-1.42 -5.3,-0.28 -10.51,-0.38 -14.55,3.52 -0.69,0.67 0.37,1.73 1.07,1.06 4.95,-4.78 13,-3.11 19.22,-2.76 l 20.1,1.1 c 1,0.06 1,-1.44 0,-1.5 z"
           id="path176"
           inkscape:connector-curvature="0"
           style="fill:#1e120d" />
      </g>
      <g
         class="cls-16"
         id="g182"
         style="opacity:0.33000004">
        <path
           class="cls-5"
           d="m 147.12,147.17 a 169.64,169.64 0 0 1 21,16.29 c 0.71,0.65 1.77,-0.41 1.06,-1.06 a 171.79,171.79 0 0 0 -21.3,-16.52 c -0.81,-0.53 -1.56,0.77 -0.76,1.29 z"
           id="path180"
           inkscape:connector-curvature="0"
           style="fill:#1e120d" />
      </g>
      <g
         class="cls-16"
         id="g186"
         style="opacity:0.33000004">
        <path
           class="cls-5"
           d="m 164.26,158.87 5.8,-10.49 c 0.47,-0.84 -0.82,-1.6 -1.29,-0.75 L 163,158.12 c -0.47,0.84 0.83,1.6 1.3,0.75 z"
           id="path184"
           inkscape:connector-curvature="0"
           style="fill:#1e120d" />
      </g>
      <g
         class="cls-16"
         id="g190"
         style="opacity:0.33000004">
        <path
           class="cls-5"
           d="m 123.3,144.27 q -0.9,7.23 -2.28,14.37 c -0.18,1 1.26,1.35 1.44,0.4 q 1.42,-7.35 2.34,-14.77 c 0.11,-1 -1.39,-1 -1.5,0 z"
           id="path188"
           inkscape:connector-curvature="0"
           style="fill:#1e120d" />
      </g>
      <g
         class="cls-17"
         id="g194"
         style="opacity:0.43999999">
        <path
           class="cls-5"
           d="m 167.82,163.25 c 5.09,3 9.42,7.17 14.07,10.81 0.75,0.59 1.82,-0.46 1.06,-1.06 -4.75,-3.72 -9.18,-7.95 -14.37,-11.05 a 0.75292762,0.75292762 0 0 0 -0.76,1.3 z"
           id="path192"
           inkscape:connector-curvature="0"
           style="fill:#1e120d" />
      </g>
      <path
         class="cls-5"
         d="m 179.25,166.23 c 2,6.29 3.35,13.7 7.15,19.22 0.54,0.79 1.85,0.05 1.3,-0.75 -3.72,-5.41 -5,-12.7 -7,-18.86 -0.29,-0.92 -1.74,-0.53 -1.45,0.39 z"
         id="path196"
         inkscape:connector-curvature="0"
         style="fill:#1e120d" />
      <g
         class="cls-16"
         id="g200"
         style="opacity:0.33000004">
        <path
           class="cls-5"
           d="m 188,185 a 122,122 0 0 0 -22.45,17.44 c -0.69,0.68 0.37,1.74 1.06,1.06 A 120.36,120.36 0 0 1 188.76,186.29 0.75,0.75 0 0 0 188,185 Z"
           id="path198"
           inkscape:connector-curvature="0"
           style="fill:#1e120d" />
      </g>
      <g
         class="cls-16"
         id="g204"
         style="opacity:0.33000004">
        <path
           class="cls-5"
           d="m 186,184 v 0.7 c 0,1 1.46,1 1.5,0 V 184 c 0,-1 -1.46,-1 -1.5,0 z"
           id="path202"
           inkscape:connector-curvature="0"
           style="fill:#1e120d" />
      </g>
      <path
         class="cls-5"
         d="m 186.85,185.8 c 13.48,5.44 27.05,11.94 41.77,12.82 1,0.06 1,-1.44 0,-1.5 -14.56,-0.87 -28,-7.38 -41.37,-12.77 -0.9,-0.36 -1.29,1.09 -0.4,1.45 z"
         id="path206"
         inkscape:connector-curvature="0"
         style="fill:#1e120d" />
      <path
         class="cls-18"
         d="m 159.43,295.38 c 4.3,4.67 15,12.67 19.31,14.52 a 77,77 0 0 0 14.7,4.59 c 5.77,1.22 21.39,6.62 52.63,17.43 35.07,12.13 52.41,19.22 70.35,19.61 4.41,0.09 13.51,0.21 17.61,-3.61 1.61,-1.51 2.33,-3.7 3.79,-8.07 a 38.5,38.5 0 0 0 1.8,-6.65 c 0,0 1,-7.93 -6,-15.94 -7.66,-8.83 -26.22,0.16 -64.1,-8.31 -39.81,-8.89 -38.93,-11.65 -63.62,-27.16 -6.26,-3.94 -10.29,-10.33 -18.1,-14.44 -13.61,-7.18 -17.46,-8.79 -17.46,-8.79 -6.48,-2.32 -12.56,16.62 -13.91,20.75 -1.35,4.13 -3.66,8.83 3,16.07 z"
         id="path208"
         inkscape:connector-curvature="0"
         style="stroke:#1e120d;stroke-width:0.5px;stroke-miterlimit:10" />
      <path
         class="cls-19"
         d="m 157,311.62 c 4.3,4.67 15,12.67 19.31,14.51 a 77.3,77.3 0 0 0 14.7,4.6 c 5.77,1.21 21.39,6.62 52.63,17.43 35.07,12.13 52.41,19.21 70.35,19.6 4.41,0.1 13.51,0.22 17.61,-3.61 1.6,-1.5 2.33,-3.69 3.79,-8.07 a 37.34,37.34 0 0 0 1.79,-6.65 c 0,0 1,-7.92 -6,-15.93 -7.66,-8.83 -26.22,0.15 -64.1,-8.31 -39.81,-8.9 -38.93,-11.66 -63.62,-27.17 -6.26,-3.93 -10.29,-10.32 -18.1,-14.44 -13.61,-7.17 -17.47,-8.79 -17.47,-8.79 -6.47,-2.32 -12.55,16.63 -13.9,20.76 -1.35,4.13 -3.68,8.83 3.01,16.07 z"
         id="path210"
         inkscape:connector-curvature="0"
         style="opacity:0.77999998;stroke:#1e120d;stroke-width:0.5px;stroke-miterlimit:10" />
      <g
         class="cls-16"
         id="g214"
         style="opacity:0.33000004">
        <path
           class="cls-5"
           d="m 136.15,179.78 c 5,-0.82 10.27,-1.79 13.75,-5.82 4.43,-5.13 6.95,-12.27 10.24,-18.13 0.48,-0.84 -0.82,-1.6 -1.29,-0.76 -3.13,5.57 -5.58,12 -9.44,17.09 -3.31,4.38 -8.52,5.33 -13.66,6.17 -0.95,0.16 -0.55,1.61 0.4,1.45 z"
           id="path212"
           inkscape:connector-curvature="0"
           style="fill:#1e120d" />
      </g>
      <rect
         class="cls-20"
         x="0.28"
         y="0.28"
         width="1192"
         height="583"
         id="rect216"
         style="fill:none;stroke:#1e120d;stroke-width:0.56px;stroke-miterlimit:10" />
    </g>
  </g>
</svg>
