<svg width="56" height="56" viewBox="0 0 56 56" fill="none" xmlns="http://www.w3.org/2000/svg">
<path d="M50.75 44.6241H33.25V45.4991H22.75V44.6241H5.25C4.76613 44.6241 4.375 45.0152 4.375 45.4991C4.375 45.983 4.75825 46.459 5.22988 46.564L10.542 47.7452C11.4853 47.9544 13.034 48.125 14 48.125H42C42.966 48.125 44.5148 47.9552 45.458 47.7452L50.7701 46.564C51.2426 46.459 51.625 45.983 51.625 45.4991C51.625 45.0152 51.2339 44.6241 50.75 44.6241ZM50.5811 45.7091L45.269 46.8904C44.3931 47.0855 42.896 47.2491 42.0009 47.2491H14C13.1049 47.2491 11.6078 47.0846 10.7319 46.8904L5.41975 45.7091C5.348 45.6942 5.25 45.5717 5.25 45.4991H21.875V46.3741H22.75H33.25H34.125V45.4991H50.75C50.75 45.5717 50.652 45.6942 50.5811 45.7091Z" fill="#7399B0"/>
<path d="M14.875 38.4991H20.125V34.1241H14.875V38.4991ZM15.75 34.9991H19.25V37.6241H15.75V34.9991Z" fill="#7399B0"/>
<path d="M21.875 30.6241V38.4991H27.125V30.6241H21.875ZM26.25 37.6241H22.75V31.4991H26.25V37.6241Z" fill="#7399B0"/>
<path d="M28.875 26.1966C29.162 26.229 29.4542 26.2491 29.75 26.2491V25.3741H33.25V25.4179C33.551 25.2665 33.8424 25.0967 34.125 24.906V24.4991H28.875V26.1966Z" fill="#7399B0"/>
<path d="M28.875 28.8295V38.4991H34.125V27.9142C33.8389 28.0472 33.5466 28.1636 33.25 28.2695V37.6232H29.75V28.8732C29.4542 28.8741 29.1638 28.854 28.875 28.8295Z" fill="#7399B0"/>
<path d="M35.875 23.2916C35.917 23.2391 35.966 23.1945 36.0063 23.1411C36.2915 22.7666 36.5374 22.372 36.75 21.9634V20.1232H37.4238C37.4903 19.8354 37.5384 19.5431 37.5708 19.2482H35.875V23.2916Z" fill="#7399B0"/>
<path d="M41.125 25.8869V19.2491H40.2106C40.1861 19.544 40.1476 19.8345 40.0986 20.1241H40.25V25.0119L41.125 25.8869Z" fill="#7399B0"/>
<path d="M35.875 28.3614V38.4991H41.125V33.6114L40.25 32.7364V37.6241H36.75V29.2364L35.875 28.3614Z" fill="#7399B0"/>
<path d="M37.422 16.6241C37.3546 16.3249 37.2663 16.0335 37.1656 15.7491H22.3344C22.2338 16.0335 22.1454 16.3249 22.078 16.6241H37.422Z" fill="#7399B0"/>
<path d="M8.75 16.6241V27.9991V40.2491V41.9991H47.25V40.2491V37.8945C46.9866 38.0485 46.6891 38.1351 46.375 38.1351V40.2491V41.1241H9.625V40.2491V27.9991V16.6241H19.4084C19.4591 16.3275 19.5221 16.037 19.5956 15.7491H9.625C9.14113 15.7491 8.75 16.1402 8.75 16.6241Z" fill="#7399B0"/>
<path d="M46.375 31.1369L47.25 32.0119V27.9991V16.6241C47.25 16.1402 46.8589 15.7491 46.375 15.7491H39.9044C39.9779 16.037 40.0409 16.3275 40.0916 16.6241H46.375V27.9991V31.1369Z" fill="#7399B0"/>
<path d="M36.2941 13.9991H23.2059C23.0195 14.2774 22.8568 14.5722 22.7054 14.8741H36.7946C36.6433 14.5722 36.4796 14.2774 36.2941 13.9991Z" fill="#7399B0"/>
<path d="M46.375 14.8741C47.341 14.8741 48.125 15.659 48.125 16.6241V32.8869L49 33.7619V16.6241C49 15.1804 47.8188 13.9991 46.375 13.9991H39.2831C39.4144 14.2835 39.5316 14.5757 39.6375 14.8741H46.375Z" fill="#7399B0"/>
<path d="M49 36.2364L48.125 37.1114V42.8741H7.875V16.6241C7.875 15.659 8.659 14.8741 9.625 14.8741H19.8625C19.9684 14.5757 20.0856 14.2835 20.2169 13.9991H9.625C8.18125 13.9991 7 15.1804 7 16.6241V43.7491H49V36.2364Z" fill="#7399B0"/>
<path d="M29.75 27.9991C31.9611 27.9991 33.9929 27.2457 35.6178 25.9919L36.3493 26.7234C36.1777 27.0532 36.218 27.4671 36.4936 27.7427L45.7564 37.0055C45.9261 37.1752 46.151 37.2601 46.375 37.2601C46.599 37.2601 46.8239 37.1752 46.9936 37.0055L48.3814 35.6177C48.7218 35.2774 48.7218 34.7209 48.3814 34.3805L39.1186 25.1177C38.9489 24.948 38.724 24.8622 38.5 24.8622C38.3609 24.8622 38.2261 24.9077 38.0993 24.9734L37.3678 24.2419C38.6216 22.617 39.375 20.5852 39.375 18.3741C39.375 13.0585 35.0656 8.74911 29.75 8.74911C24.4344 8.74911 20.125 13.0585 20.125 18.3741C20.125 23.6897 24.4344 27.9991 29.75 27.9991ZM47.7627 34.9991L46.375 36.3869L37.1123 27.1241L38.4974 25.7381C38.4983 25.7372 38.4982 25.7372 38.5 25.7372V25.7364L47.7627 34.9991ZM36.8007 24.9121L37.4439 25.5552L36.9311 26.068L36.288 25.4249C36.2906 25.4222 36.2932 25.4196 36.2959 25.4161C36.4674 25.2569 36.6336 25.0915 36.7929 24.9209C36.7955 24.9174 36.7981 24.9147 36.8007 24.9121ZM29.75 9.62412C34.5817 9.62412 38.5 13.5424 38.5 18.3741C38.5 20.3674 37.8254 22.2005 36.7019 23.6731C36.2267 24.2952 35.6703 24.8509 35.0473 25.326C33.5755 26.4504 31.7441 27.125 29.7491 27.125C24.9174 27.125 20.9991 23.2067 20.9991 18.375C20.9991 13.5432 24.9183 9.62412 29.75 9.62412Z" fill="#7399B0"/>
</svg>
