<svg width="56" height="56" viewBox="0 0 56 56" fill="none" xmlns="http://www.w3.org/2000/svg">
<path d="M56 28C56 31.677 55.2758 35.318 53.8686 38.7151C52.4615 42.1123 50.399 45.199 47.799 47.799C45.199 50.399 42.1123 52.4615 38.7151 53.8686C35.318 55.2758 31.677 56 28 56C24.323 56 20.682 55.2758 17.2849 53.8686C13.8877 52.4615 10.8011 50.399 8.20101 47.799C5.60097 45.199 3.53851 42.1123 2.13137 38.7151C0.724242 35.318 4.16921e-07 31.677 0 28C0 24.323 0.724241 20.682 2.13137 17.2849C3.53851 13.8877 5.60097 10.801 8.20101 8.20101C10.8011 5.60097 13.8877 3.5385 17.2849 2.13137C20.682 0.72424 24.323 -8.80166e-07 28 0C31.677 -6.94868e-07 35.318 0.72424 38.7151 2.13137C42.1123 3.5385 45.1989 5.60097 47.799 8.20101C50.399 10.801 52.4615 13.8877 53.8686 17.2849C55.2758 20.682 56 24.323 56 28Z" fill="#191919"/>
<path d="M18.629 16.9348C17.7313 16.9348 17.0024 17.6427 17.0024 18.5181V37.4819C17.0024 38.3576 17.7313 39.0653 18.629 39.0653H37.3709C38.2686 39.0653 38.9974 38.3576 38.9974 37.4819V18.5181C38.9974 17.6427 38.2686 16.9348 37.3709 16.9348H18.629ZM22.0299 20.6499C23.1664 20.6499 23.8628 21.3942 23.8843 22.375C23.8843 23.3341 23.1637 24.1001 22.0052 24.1001H21.9862C20.8713 24.1001 20.1502 23.3341 20.1502 22.375C20.1502 21.3942 20.8929 20.6499 22.0293 20.6499H22.0299ZM31.8259 25.2337C34.0117 25.2337 35.6458 26.6612 35.6458 29.7313V35.4611H32.325V30.1133C32.325 28.7696 31.8451 27.8522 30.643 27.8522C29.7253 27.8522 29.1766 28.4752 28.9364 29.072C28.8488 29.2856 28.8316 29.5804 28.8316 29.8791V35.4611H25.5047C25.5047 35.4611 25.5483 26.4057 25.5047 25.4678H28.8316V26.8787C29.2732 26.1977 30.0644 25.2337 31.8259 25.2337H31.8259ZM28.8317 26.8787C28.8232 26.8905 28.8147 26.904 28.8071 26.9157H28.8317V26.8787ZM20.3479 25.4678H23.6687V35.4611H20.3479V25.4678Z" fill="white"/>
</svg>
