<?xml version="1.0" encoding="UTF-8" standalone="no"?>
<svg
   xmlns:dc="http://purl.org/dc/elements/1.1/"
   xmlns:cc="http://creativecommons.org/ns#"
   xmlns:rdf="http://www.w3.org/1999/02/22-rdf-syntax-ns#"
   xmlns:svg="http://www.w3.org/2000/svg"
   xmlns="http://www.w3.org/2000/svg"
   xmlns:sodipodi="http://sodipodi.sourceforge.net/DTD/sodipodi-0.dtd"
   xmlns:inkscape="http://www.inkscape.org/namespaces/inkscape"
   width="56"
   height="56"
   viewBox="0 0 56 56"
   fill="none"
   version="1.1"
   id="svg6"
   sodipodi:docname="Twitter_icon.svg"
   inkscape:version="0.92.4 (5da689c313, 2019-01-14)">
  <metadata
     id="metadata12">
    <rdf:RDF>
      <cc:Work
         rdf:about="">
        <dc:format>image/svg+xml</dc:format>
        <dc:type
           rdf:resource="http://purl.org/dc/dcmitype/StillImage" />
        <dc:title></dc:title>
      </cc:Work>
    </rdf:RDF>
  </metadata>
  <defs
     id="defs10" />
  <sodipodi:namedview
     pagecolor="#ffffff"
     bordercolor="#666666"
     borderopacity="1"
     objecttolerance="10"
     gridtolerance="10"
     guidetolerance="10"
     inkscape:pageopacity="0"
     inkscape:pageshadow="2"
     inkscape:window-width="1920"
     inkscape:window-height="1017"
     id="namedview8"
     showgrid="false"
     inkscape:zoom="4.2142857"
     inkscape:cx="28"
     inkscape:cy="28"
     inkscape:window-x="-8"
     inkscape:window-y="-8"
     inkscape:window-maximized="1"
     inkscape:current-layer="svg6" />
  <path
     d="M56 28C56 31.677 55.2758 35.318 53.8686 38.7151C52.4615 42.1123 50.399 45.199 47.799 47.799C45.1989 50.399 42.1123 52.4615 38.7151 53.8686C35.318 55.2758 31.677 56 28 56C24.323 56 20.682 55.2758 17.2849 53.8686C13.8877 52.4615 10.8011 50.399 8.20101 47.799C5.60097 45.199 3.53851 42.1123 2.13137 38.7151C0.724242 35.318 4.16921e-07 31.677 0 28C0 24.323 0.724241 20.682 2.13137 17.2849C3.5385 13.8877 5.60097 10.801 8.20101 8.20101C10.8011 5.60097 13.8877 3.5385 17.2849 2.13137C20.682 0.72424 24.323 -8.80166e-07 28 0C31.677 -7.87517e-07 35.318 0.72424 38.7151 2.13137C42.1123 3.5385 45.1989 5.60097 47.799 8.20101C50.399 10.801 52.4615 13.8877 53.8686 17.2849C55.2758 20.682 56 24.323 56 28Z"
     fill="#191919"
     id="path2"
     style="fill:#fefefe;fill-opacity:1" />
  <path
     d="M40.3717 20.3262C39.4618 20.73 38.4832 21.0029 37.4566 21.1259C38.5045 20.4974 39.309 19.5026 39.688 18.3176C38.7073 18.8995 37.6213 19.3216 36.4645 19.5491C35.539 18.5628 34.2197 17.9463 32.7597 17.9463C29.9561 17.9463 27.6838 20.2188 27.6838 23.0223C27.6838 23.4203 27.7284 23.8078 27.8152 24.1791C23.5963 23.9677 19.8561 21.9462 17.3524 18.8754C16.9154 19.6248 16.6651 20.4966 16.6651 21.4271C16.6651 23.1884 17.5609 24.7418 18.9234 25.6524C18.0913 25.6264 17.3085 25.398 16.6241 25.0175C16.6231 25.039 16.6231 25.06 16.6231 25.0813C16.6231 27.5412 18.373 29.5923 20.695 30.0589C20.2694 30.175 19.8211 30.2363 19.3581 30.2363C19.0306 30.2363 18.7132 30.2053 18.4027 30.1459C19.0491 32.1625 20.9234 33.6303 23.145 33.6713C21.4064 35.033 19.2179 35.8441 16.8395 35.8441C16.4301 35.8441 16.0257 35.82 15.6283 35.7734C17.8757 37.2136 20.5435 38.0537 23.4104 38.0537C32.7471 38.0537 37.8521 30.3191 37.8521 23.6107C37.8521 23.3907 37.8479 23.1723 37.8373 22.9546C38.8287 22.2383 39.6892 21.3445 40.3701 20.3264"
     fill="white"
     id="path4"
     style="fill:#191919;fill-opacity:1" />
</svg>
